<svg id="Layer_1" data-name="Layer 1" xmlns="http://www.w3.org/2000/svg" xmlns:xlink="http://www.w3.org/1999/xlink" viewBox="0 0 1364.24 489.87"><defs><style>.cls-1{fill:url(#linear-gradient);}.cls-2{fill:url(#linear-gradient-2);}.cls-10,.cls-11,.cls-16,.cls-17,.cls-18,.cls-19,.cls-20,.cls-21,.cls-3,.cls-6,.cls-7,.cls-8,.cls-9{opacity:0.3;}.cls-4{fill:url(#linear-gradient-3);}.cls-5{fill:#b8b9bb;}.cls-6{fill:url(#linear-gradient-4);}.cls-7{fill:url(#linear-gradient-5);}.cls-8{fill:url(#linear-gradient-6);}.cls-9{fill:url(#linear-gradient-7);}.cls-10{fill:url(#linear-gradient-8);}.cls-11{fill:url(#linear-gradient-9);}.cls-12{fill:url(#linear-gradient-10);}.cls-13{fill:#d7d8d9;}.cls-14{fill:#231f20;}.cls-15{fill:url(#linear-gradient-11);}.cls-16{fill:url(#linear-gradient-12);}.cls-17{fill:url(#linear-gradient-13);}.cls-18{fill:url(#linear-gradient-14);}.cls-19{fill:url(#linear-gradient-15);}.cls-20{fill:url(#linear-gradient-16);}.cls-21{fill:url(#linear-gradient-17);}.cls-22{fill:url(#linear-gradient-18);}.cls-23{fill:url(#linear-gradient-19);}.cls-24{fill:url(#linear-gradient-20);}.cls-25{fill:url(#linear-gradient-21);}.cls-26{fill:url(#linear-gradient-22);}.cls-27{fill:url(#linear-gradient-23);}.cls-28{fill:url(#linear-gradient-24);}.cls-29{fill:url(#linear-gradient-25);}.cls-30{fill:url(#linear-gradient-26);}.cls-31{fill:url(#linear-gradient-27);}.cls-32{fill:url(#linear-gradient-28);}.cls-33{fill:url(#linear-gradient-29);}.cls-34{fill:url(#linear-gradient-30);}.cls-35{fill:url(#linear-gradient-31);}.cls-36{fill:url(#linear-gradient-32);}.cls-37{fill:#15aee5;}.cls-38{fill:#0e388e;}</style><linearGradient id="linear-gradient" x1="2202.33" y1="212.39" x2="2284.33" y2="260.39" gradientTransform="matrix(-1, 0, 0, 1, 2314.48, 0)" gradientUnits="userSpaceOnUse"><stop offset="0" stop-color="#7b7d7f"/><stop offset="1" stop-color="#5c5e60"/></linearGradient><linearGradient id="linear-gradient-2" y1="350.18" x2="217.33" y2="350.18" gradientUnits="userSpaceOnUse"><stop offset="0" stop-color="#5f6264"/><stop offset="1" stop-color="#babbbd"/></linearGradient><linearGradient id="linear-gradient-3" x1="2156.83" y1="375.45" x2="2187.83" y2="339.45" gradientTransform="matrix(-1, 0, 0, 1, 2314.48, 0)" gradientUnits="userSpaceOnUse"><stop offset="0" stop-color="#cbccce"/><stop offset="1" stop-color="#d5d7d8"/></linearGradient><linearGradient id="linear-gradient-4" x1="2024.77" y1="365.81" x2="2049.77" y2="381.81" gradientTransform="matrix(-1, 0, 0, 1, 2314.48, 0)" gradientUnits="userSpaceOnUse"><stop offset="0" stop-color="#808183"/><stop offset="1" stop-color="#a0a2a5"/></linearGradient><linearGradient id="linear-gradient-5" x1="2035.9" y1="374.57" x2="2054.9" y2="398.57" gradientTransform="matrix(-1, 0, 0, 1, 2314.48, 0)" gradientUnits="userSpaceOnUse"><stop offset="0" stop-color="#808183"/><stop offset="0.1" stop-color="#8d8e91"/><stop offset="0.24" stop-color="#989a9c"/><stop offset="0.44" stop-color="#9ea0a3"/><stop offset="1" stop-color="#a0a2a5"/></linearGradient><linearGradient id="linear-gradient-6" x1="2155.91" y1="276.74" x2="2100.91" y2="345.74" xlink:href="#linear-gradient-5"/><linearGradient id="linear-gradient-7" x1="162.16" y1="393.78" x2="140.16" y2="434.78" gradientUnits="userSpaceOnUse"><stop offset="0" stop-color="#707375"/><stop offset="1" stop-color="#babbbd"/></linearGradient><linearGradient id="linear-gradient-8" x1="46.04" y1="320.09" x2="92.04" y2="365.09" gradientUnits="userSpaceOnUse"><stop offset="0" stop-color="#434547"/><stop offset="0.47" stop-color="#797b7d"/><stop offset="1" stop-color="#b3b5b7"/></linearGradient><linearGradient id="linear-gradient-9" x1="260.9" y1="307.62" x2="232.9" y2="336.62" gradientUnits="userSpaceOnUse"><stop offset="0" stop-color="#73858f"/><stop offset="1" stop-color="#a0a2a5"/></linearGradient><linearGradient id="linear-gradient-10" x1="365.76" y1="212.39" x2="447.76" y2="260.39" gradientTransform="matrix(1, 0, 0, 1, 0, 0)" xlink:href="#linear-gradient-4"/><linearGradient id="linear-gradient-11" x1="320.26" y1="375.45" x2="351.26" y2="339.45" gradientTransform="matrix(1, 0, 0, 1, 0, 0)" xlink:href="#linear-gradient-4"/><linearGradient id="linear-gradient-12" x1="188.2" y1="365.81" x2="213.2" y2="381.81" gradientTransform="matrix(1, 0, 0, 1, 0, 0)" xlink:href="#linear-gradient-4"/><linearGradient id="linear-gradient-13" x1="199.34" y1="374.57" x2="218.34" y2="398.57" gradientTransform="matrix(1, 0, 0, 1, 0, 0)" xlink:href="#linear-gradient-5"/><linearGradient id="linear-gradient-14" x1="319.34" y1="276.74" x2="264.34" y2="345.74" gradientTransform="matrix(1, 0, 0, 1, 0, 0)" xlink:href="#linear-gradient-5"/><linearGradient id="linear-gradient-15" x1="316.02" y1="393.27" x2="325.02" y2="405.27" gradientTransform="matrix(1, 0, 0, 1, 0, 0)" xlink:href="#linear-gradient-5"/><linearGradient id="linear-gradient-16" x1="409.49" y1="339.87" x2="380.82" y2="402.53" gradientUnits="userSpaceOnUse"><stop offset="0" stop-color="#808183"/><stop offset="0.41" stop-color="#aaabad"/><stop offset="1" stop-color="#e4e5e6"/></linearGradient><linearGradient id="linear-gradient-17" x1="203.47" y1="345.18" x2="262.47" y2="282.18" gradientTransform="matrix(1, 0, 0, 1, 0, 0)" xlink:href="#linear-gradient-4"/><linearGradient id="linear-gradient-18" x1="240.82" y1="182.57" x2="160.15" y2="140.57" gradientUnits="userSpaceOnUse"><stop offset="0" stop-color="#afb1b4"/><stop offset="0.28" stop-color="#bcbec0"/><stop offset="1" stop-color="#dadbdc"/></linearGradient><linearGradient id="linear-gradient-19" x1="231.13" y1="229.97" x2="283.8" y2="207.97" gradientUnits="userSpaceOnUse"><stop offset="0" stop-color="#8d8f92"/><stop offset="0.4" stop-color="#a4a5a8"/><stop offset="1" stop-color="#c2c3c4"/></linearGradient><linearGradient id="linear-gradient-20" x1="157.3" y1="142.55" x2="235.97" y2="233.88" xlink:href="#linear-gradient-18"/><linearGradient id="linear-gradient-21" x1="205.41" y1="104.85" x2="171.18" y2="140.3" xlink:href="#linear-gradient-18"/><linearGradient id="linear-gradient-22" x1="287.85" y1="33.95" x2="225.85" y2="94.61" xlink:href="#linear-gradient-18"/><linearGradient id="linear-gradient-23" x1="241.38" y1="135.92" x2="280.05" y2="133.92" gradientTransform="matrix(1, 0, 0, 1, 0, 0)" xlink:href="#linear-gradient-4"/><linearGradient id="linear-gradient-24" x1="301.04" y1="44.52" x2="353.54" y2="98.52" gradientUnits="userSpaceOnUse"><stop offset="0" stop-color="#9d9fa2"/><stop offset="0.48" stop-color="#bcbdbf"/><stop offset="1" stop-color="#dadbdc"/></linearGradient><linearGradient id="linear-gradient-25" x1="261.48" y1="97.92" x2="326.82" y2="89.25" xlink:href="#linear-gradient-24"/><linearGradient id="linear-gradient-26" x1="182.92" y1="78" x2="196.67" y2="67.75" xlink:href="#linear-gradient-18"/><linearGradient id="linear-gradient-27" x1="199.34" y1="66.5" x2="211.34" y2="56.5" xlink:href="#linear-gradient-18"/><linearGradient id="linear-gradient-28" x1="213.06" y1="54.34" x2="221.81" y2="49.59" xlink:href="#linear-gradient-18"/><linearGradient id="linear-gradient-29" x1="226.1" y1="46.04" x2="236.6" y2="41.29" xlink:href="#linear-gradient-18"/><linearGradient id="linear-gradient-30" x1="239.59" y1="37.88" x2="247.09" y2="32.63" xlink:href="#linear-gradient-18"/><linearGradient id="linear-gradient-31" x1="206.68" y1="116.25" x2="262.02" y2="177.58" xlink:href="#linear-gradient-24"/><linearGradient id="linear-gradient-32" x1="481.51" y1="296.25" x2="589.15" y2="216.02" xlink:href="#linear-gradient-18"/></defs><title>logo metafastest new_B_Color</title><polygon class="cls-1" points="163.67 191.85 67 191.85 0 270.18 93.67 270.18 163.67 191.85"/><polygon class="cls-2" points="0 270.18 93.67 270.18 217.33 430.18 126.33 430.18 0 270.18"/><g class="cls-3"><polygon class="cls-4" points="93.67 270.18 217.33 430.18 110.24 351.34 93.67 270.18"/></g><polygon class="cls-5" points="67 191.85 163.67 191.85 350.67 430.18 257 430.18 67 191.85"/><polygon class="cls-6" points="351.58 430.18 257 430.18 210.84 312.31 351.58 430.18"/><polygon class="cls-7" points="351.58 430.18 257 430.18 210.84 312.31 351.58 430.18"/><polygon class="cls-8" points="210.84 312.31 257 430.18 67 191.85 210.84 312.31"/><polygon class="cls-9" points="217.33 430.18 126.33 430.18 110.24 351.34 217.33 430.18"/><polygon class="cls-10" points="110.24 351.34 126.33 430.18 0 270.18 110.24 351.34"/><polygon class="cls-11" points="163.67 191.85 351.58 430.18 210.84 312.31 163.67 191.85"/><polygon class="cls-12" points="314.25 191.85 410.92 191.85 477.92 270.18 384.25 270.18 314.25 191.85"/><polygon class="cls-13" points="477.92 270.18 384.25 270.18 260.58 430.18 351.58 430.18 477.92 270.18"/><polygon class="cls-14" points="410.92 191.85 126.25 430.18 220.92 430.18 410.92 191.85"/><g class="cls-3"><polygon class="cls-15" points="384.25 270.18 260.58 430.18 367.68 351.34 384.25 270.18"/></g><polygon class="cls-13" points="410.92 191.85 314.25 191.85 127.25 430.18 220.92 430.18 410.92 191.85"/><polygon class="cls-16" points="126.33 430.18 220.92 430.18 267.07 312.31 126.33 430.18"/><polygon class="cls-17" points="126.33 430.18 220.92 430.18 267.07 312.31 126.33 430.18"/><polygon class="cls-18" points="267.07 312.31 220.92 430.18 410.92 191.85 267.07 312.31"/><polygon class="cls-19" points="260.58 430.18 351.58 430.18 367.68 351.34 260.58 430.18"/><polygon class="cls-20" points="367.68 351.34 351.58 430.18 477.92 270.18 367.68 351.34"/><polygon class="cls-21" points="314.25 191.85 126.33 430.18 267.07 312.31 314.25 191.85"/><polygon class="cls-22" points="115.92 110.85 297.5 189.85 224.58 196.35 115.92 110.85"/><polygon class="cls-23" points="224.58 196.35 297.5 189.85 239.83 262.68 224.58 196.35"/><polygon class="cls-24" points="224.58 196.35 115.92 110.85 239.83 262.68 224.58 196.35"/><polygon class="cls-25" points="180.5 88.1 167.91 133.47 203.79 149.08 200.5 73.35 180.5 88.1"/><polygon class="cls-26" points="200.5 73.35 303 0 213.12 153.14 203.79 149.08 200.5 73.35"/><polygon class="cls-27" points="297.5 189.85 257.06 78.27 235.37 115.23 297.5 189.85"/><polygon class="cls-28" points="280.53 38.29 301.25 32.18 371.25 97.18 377.58 115.85 278.81 41.21 280.53 38.29"/><polygon class="cls-29" points="278.81 41.21 239.22 108.67 288.42 115.85 318.58 118.02 333.75 130.52 354.25 140.02 371.75 131.6 377.58 115.85 278.81 41.21"/><polygon class="cls-30" points="180.75 74.02 180.5 88.1 200.5 73.35 200.5 70.52 196.58 67.52 195.25 60.35 180.75 74.02"/><polygon class="cls-31" points="200.5 56.18 200.5 73.35 216.28 62.06 206.71 50.68 200.5 56.18"/><polygon class="cls-32" points="211.92 47.02 211.92 65.18 226.63 54.65 218.42 41.21 211.92 47.02"/><polygon class="cls-33" points="224.58 37.85 222.58 57.52 239.83 45.2 231.21 33.85 224.58 37.85"/><polygon class="cls-34" points="236.92 32.18 235.37 48.4 250.74 37.4 244.08 27.52 236.92 32.18"/><polygon class="cls-35" points="200.5 73.35 297.5 189.85 203.79 149.08 200.5 73.35"/><rect class="cls-36" x="518.62" y="83.73" width="4" height="366.74"/><polygon class="cls-37" points="725.89 83.96 807.59 83.96 807.59 103.99 750.87 103.99 750.87 127.39 800.61 127.39 800.61 146.97 751.09 146.97 751.09 170.83 809.61 170.83 809.61 191.54 725.89 191.54 725.89 83.96"/><polygon class="cls-37" points="1029.72 213.29 1111.42 213.29 1111.42 233.32 1054.71 233.32 1054.71 256.73 1104.44 256.73 1104.44 276.31 1054.93 276.31 1054.93 300.17 1113.45 300.17 1113.45 320.87 1029.72 320.87 1029.72 213.29"/><polygon class="cls-37" points="832.79 83.96 926.42 83.96 926.42 104.44 892.66 104.44 892.66 191.54 867.23 191.54 867.23 104.89 832.79 104.89 832.79 83.96"/><polygon class="cls-37" points="1249.67 213.29 1343.29 213.29 1343.29 233.77 1309.53 233.77 1309.53 320.87 1284.1 320.87 1284.1 234.22 1249.67 234.22 1249.67 213.29"/><polygon class="cls-37" points="906.5 213.29 1000.13 213.29 1000.13 233.77 966.37 233.77 966.37 320.87 940.94 320.87 940.94 234.22 906.5 234.22 906.5 213.29"/><path class="cls-37" d="M1009.47,84H983.81L935.87,191.54H962.2l9.23-23.18,49.07.22,9.9,23h26.78Zm-30.16,64.81,17.22-40.28,16.31,40.28Z"/><path class="cls-37" d="M732.49,213.29H706.83L658.89,320.87h26.34l9.22-23.18,49.07.23,9.9,22.95H780.2Zm-30.16,64.82,17.22-40.28,16.31,40.28Z"/><polygon class="cls-37" points="663.77 83.73 624.5 149.9 584.58 83.96 563.39 83.96 563.39 191.54 587.02 191.54 587.02 129.64 618.08 180.73 629.33 180.73 661.29 127.62 661.29 191.54 685.6 191.54 685.6 83.73 663.77 83.73"/><polygon class="cls-37" points="563.39 320.87 588.52 320.87 588.52 280.96 638.34 280.96 638.34 260.86 588.22 260.86 588.22 232.35 644.64 232.35 644.64 213.29 563.39 213.29 563.39 320.87"/><path class="cls-37" d="M874.65,239.88c-4.25-1.91-17.22-7.46-29.14-8.44a26.8,26.8,0,0,0-10.69,1.13c-3.15,1-6.54,2.12-8.44,5.51a10.5,10.5,0,0,0-.23,9.57c1.81,3.59,5.52,5,9.46,6.3,12.48,4.07,17.24,3.51,25.54,6,6.84,2,14.23,4.2,19.92,10.92,7.43,8.78,6.95,19.42,6.86,20.82-.78,12.82-9.88,20.51-12.38,22.61-10.32,8.73-22.49,8.95-31.84,9.12-20.68.38-37.05-7.25-46.48-12.83q4.46-9.51,8.89-19a66,66,0,0,0,20.48,9.23,58.26,58.26,0,0,0,19.25,2c5.75-.48,10.67-1,13.73-4.84,2.06-2.61,3.38-6.91,1.8-10.36a9.69,9.69,0,0,0-4.84-4.38,56.68,56.68,0,0,0-18-5.18c-4.71-.73-15.84-2.44-25.54-9-3.56-2.41-8.56-5.79-11.59-12.27-4.71-10-1.21-20.09-.12-22.84,5.13-13,17.6-17.92,22.06-19.7,6.52-2.59,11.84-2.88,18.68-3.26a70.25,70.25,0,0,1,27,3.15A65.87,65.87,0,0,1,883.54,221Q879.1,230.43,874.65,239.88Z"/><path class="cls-37" d="M1217.54,239.88c-4.26-1.91-17.22-7.46-29.15-8.44a26.82,26.82,0,0,0-10.69,1.13c-3.14,1-6.54,2.12-8.44,5.51a10.5,10.5,0,0,0-.22,9.57c1.8,3.59,5.51,5,9.45,6.3,12.49,4.07,17.24,3.51,25.55,6,6.84,2,14.23,4.2,19.91,10.92,7.44,8.78,7,19.42,6.87,20.82-.78,12.82-9.89,20.51-12.38,22.61-10.33,8.73-22.5,8.95-31.85,9.12-20.67.38-37-7.25-46.47-12.83q4.44-9.51,8.89-19a65.89,65.89,0,0,0,20.48,9.23,58.22,58.22,0,0,0,19.24,2c5.75-.48,10.67-1,13.73-4.84,2.06-2.61,3.39-6.91,1.8-10.36a9.65,9.65,0,0,0-4.84-4.38,56.64,56.64,0,0,0-18-5.18c-4.71-.73-15.84-2.44-25.55-9-3.56-2.41-8.55-5.79-11.59-12.27-4.7-10-1.2-20.09-.11-22.84,5.13-13,17.59-17.92,22.06-19.7,6.51-2.59,11.83-2.88,18.68-3.26a70.2,70.2,0,0,1,27,3.15,66,66,0,0,1,14.52,6.87Z"/><path class="cls-38" d="M620.41,399.31H578.49v38.88h46.72v11.68H564.57V342h58.24v11.68H578.49v34.08h41.92Z"/><path class="cls-38" d="M710.33,449.87,696.57,426c-5.6-9.12-9.12-15-12.48-21.28h-.32c-3,6.24-6.08,12-11.68,21.44l-13,23.68h-16l33-54.56L644.41,342h16.16l14.24,25.28c4,7,7,12.48,9.92,18.24h.48c3-6.4,5.76-11.36,9.76-18.24L709.69,342h16l-32.8,52.48,33.6,55.36Z"/><path class="cls-38" d="M821.37,446.35c-5.12,2.56-15.36,5.12-28.48,5.12-30.4,0-53.28-19.2-53.28-54.56,0-33.76,22.88-56.64,56.32-56.64,13.44,0,21.92,2.88,25.6,4.8l-3.36,11.36A50.7,50.7,0,0,0,796.41,352c-25.28,0-42.08,16.16-42.08,44.48,0,26.4,15.2,43.36,41.44,43.36,8.48,0,17.12-1.76,22.72-4.48Z"/><path class="cls-38" d="M860.73,342v45.12h52.16V342H927V449.87H912.89V399.31H860.73v50.56H846.8V342Z"/><path class="cls-38" d="M976.56,416l-11.2,33.92H951L987.6,342h16.8l36.8,107.84h-14.88L1014.8,416Zm35.36-10.88-10.56-31c-2.4-7-4-13.44-5.6-19.68h-.32c-1.6,6.4-3.36,13-5.44,19.52l-10.56,31.2Z"/><path class="cls-38" d="M1065,449.87V342h15.2l34.56,54.56a305.27,305.27,0,0,1,19.36,35l.32-.16c-1.28-14.4-1.6-27.52-1.6-44.32V342H1146V449.87h-14.08l-34.24-54.72c-7.52-12-14.72-24.32-20.16-36l-.48.16c.8,13.6,1.12,26.56,1.12,44.48v46.08Z"/><path class="cls-38" d="M1260.4,445.07a100.47,100.47,0,0,1-33.12,5.92c-16.32,0-29.76-4.16-40.32-14.24-9.28-9-15-23.36-15-40.16.16-32.16,22.24-55.68,58.4-55.68,12.48,0,22.24,2.72,26.88,5l-3.36,11.36c-5.76-2.56-13-4.64-23.84-4.64-26.24,0-43.36,16.32-43.36,43.36,0,27.36,16.48,43.52,41.6,43.52,9.12,0,15.36-1.28,18.56-2.88V404.43h-21.92v-11.2h35.52Z"/><path class="cls-38" d="M1345.52,399.31H1303.6v38.88h46.72v11.68h-60.64V342h58.24v11.68H1303.6v34.08h41.92Z"/></svg>