<svg width="211" height="93" viewBox="0 0 211 93" fill="none" xmlns="http://www.w3.org/2000/svg">
<path d="M20.274 68.434C15.0247 68.434 10.6847 67.2147 7.254 64.776C3.86467 62.296 2.02533 58.6793 1.736 53.926H16.368C16.5747 56.4473 17.6907 57.708 19.716 57.708C20.46 57.708 21.08 57.5427 21.576 57.212C22.1133 56.84 22.382 56.282 22.382 55.538C22.382 54.5047 21.824 53.678 20.708 53.058C19.592 52.3967 17.856 51.6527 15.5 50.826C12.6893 49.834 10.354 48.8627 8.494 47.912C6.67533 46.9613 5.10467 45.5767 3.782 43.758C2.45933 41.9393 1.81867 39.604 1.86 36.752C1.86 33.9 2.58333 31.482 4.03 29.498C5.518 27.4727 7.52267 25.9433 10.044 24.91C12.6067 23.8767 15.4793 23.36 18.662 23.36C24.0353 23.36 28.2927 24.6 31.434 27.08C34.6167 29.56 36.2907 33.0527 36.456 37.558H21.638C21.5967 36.318 21.2867 35.4293 20.708 34.892C20.1293 34.3547 19.4267 34.086 18.6 34.086C18.0213 34.086 17.546 34.2927 17.174 34.706C16.802 35.078 16.616 35.6153 16.616 36.318C16.616 37.31 17.1533 38.1367 18.228 38.798C19.344 39.418 21.1007 40.1827 23.498 41.092C26.2673 42.1253 28.5407 43.1173 30.318 44.068C32.1367 45.0187 33.7073 46.3413 35.03 48.036C36.3527 49.7307 37.014 51.8593 37.014 54.422C37.014 57.1087 36.3527 59.5267 35.03 61.676C33.7073 63.784 31.7853 65.4373 29.264 66.636C26.7427 67.8347 23.746 68.434 20.274 68.434ZM48.794 30.242C46.3967 30.242 44.4747 29.6013 43.028 28.32C41.5813 27.0387 40.858 25.4267 40.858 23.484C40.858 21.5 41.5813 19.8673 43.028 18.586C44.4747 17.2633 46.3967 16.602 48.794 16.602C51.15 16.602 53.0513 17.2633 54.498 18.586C55.9447 19.8673 56.668 21.5 56.668 23.484C56.668 25.4267 55.9447 27.0387 54.498 28.32C53.0513 29.6013 51.15 30.242 48.794 30.242ZM55.614 33.032V68H41.85V33.032H55.614ZM74.4165 32.598C76.6898 32.598 78.6531 33.0733 80.3065 34.024C81.9598 34.9333 83.2205 36.194 84.0885 37.806V33.032H97.7905V67.38C97.7905 70.6453 97.1911 73.6213 95.9925 76.308C94.7938 78.9947 92.8511 81.144 90.1645 82.756C87.5191 84.368 84.1091 85.174 79.9345 85.174C74.3131 85.174 69.8491 83.8513 66.5425 81.206C63.2771 78.602 61.4171 75.0473 60.9625 70.542H74.4785C74.8505 72.3607 76.3385 73.27 78.9425 73.27C80.5545 73.27 81.8151 72.8567 82.7245 72.03C83.6338 71.2033 84.0885 69.6533 84.0885 67.38V63.226C83.2205 64.838 81.9598 66.1193 80.3065 67.07C78.6531 67.9793 76.6898 68.434 74.4165 68.434C71.6885 68.434 69.2291 67.7313 67.0385 66.326C64.8478 64.8793 63.1118 62.8127 61.8305 60.126C60.5905 57.398 59.9705 54.1947 59.9705 50.516C59.9705 46.8373 60.5905 43.6547 61.8305 40.968C63.1118 38.24 64.8478 36.1733 67.0385 34.768C69.2291 33.3213 71.6885 32.598 74.4165 32.598ZM84.0885 50.516C84.0885 48.656 83.6131 47.2093 82.6625 46.176C81.7118 45.1427 80.4925 44.626 79.0045 44.626C77.5165 44.626 76.2971 45.1427 75.3465 46.176C74.3958 47.2093 73.9205 48.656 73.9205 50.516C73.9205 52.376 74.3958 53.8227 75.3465 54.856C76.2971 55.8893 77.5165 56.406 79.0045 56.406C80.4925 56.406 81.7118 55.8893 82.6625 54.856C83.6131 53.8227 84.0885 52.376 84.0885 50.516ZM150.657 32.784C155.121 32.784 158.572 34.1273 161.011 36.814C163.491 39.5007 164.731 43.138 164.731 47.726V68H151.029V49.462C151.029 47.974 150.574 46.8167 149.665 45.99C148.797 45.122 147.619 44.688 146.131 44.688C144.602 44.688 143.403 45.122 142.535 45.99C141.667 46.8167 141.233 47.974 141.233 49.462V68H127.531V49.462C127.531 47.974 127.076 46.8167 126.167 45.99C125.299 45.122 124.121 44.688 122.633 44.688C121.104 44.688 119.905 45.122 119.037 45.99C118.169 46.8167 117.735 47.974 117.735 49.462V68H103.971V33.032H117.735V37.744C118.727 36.256 120.07 35.0573 121.765 34.148C123.501 33.2387 125.526 32.784 127.841 32.784C130.362 32.784 132.594 33.342 134.537 34.458C136.48 35.5327 138.03 37.062 139.187 39.046C140.468 37.2273 142.101 35.7393 144.085 34.582C146.069 33.3833 148.26 32.784 150.657 32.784ZM168.834 50.516C168.834 46.8373 169.454 43.6547 170.694 40.968C171.975 38.24 173.711 36.1733 175.902 34.768C178.092 33.3213 180.552 32.598 183.28 32.598C185.553 32.598 187.516 33.0733 189.17 34.024C190.823 34.9333 192.084 36.194 192.952 37.806V33.032H206.654V68H192.952V63.226C192.084 64.838 190.823 66.1193 189.17 67.07C187.516 67.9793 185.553 68.434 183.28 68.434C180.552 68.434 178.092 67.7313 175.902 66.326C173.711 64.8793 171.975 62.8127 170.694 60.126C169.454 57.398 168.834 54.1947 168.834 50.516ZM192.952 50.516C192.952 48.656 192.476 47.2093 191.526 46.176C190.575 45.1427 189.356 44.626 187.868 44.626C186.38 44.626 185.16 45.1427 184.21 46.176C183.259 47.2093 182.784 48.656 182.784 50.516C182.784 52.376 183.259 53.8227 184.21 54.856C185.16 55.8893 186.38 56.406 187.868 56.406C189.356 56.406 190.575 55.8893 191.526 54.856C192.476 53.8227 192.952 52.376 192.952 50.516Z" fill="#45BF76"/>
</svg>
